{"accessors" : [{"bufferView" : 0, "byteOffset" : 0, "componentType" : 5123, "count" : 900, "type" : "SCALAR", "max" : [899], "min" : [0]}, {"bufferView" : 1, "byteOffset" : 0, "componentType" : 5126, "count" : 900, "type" : "VEC3", "max" : [0.3330150246620178, 0.12499495595693588, 0.297608345746994], "min" : [-0.33300042152404785, -0.12499495595693588, -0.297611266374588]}, {"bufferView" : 1, "byteOffset" : 12, "componentType" : 5126, "count" : 900, "type" : "VEC3", "max" : [0.9926594495773315, 0.9879857301712036, 0.9879857301712036], "min" : [-0.9926594495773315, -0.9879857301712036, -0.9879857301712036]}, {"bufferView" : 1, "byteOffset" : 24, "componentType" : 5126, "count" : 900, "type" : "VEC2", "max" : [0.9998915195465088, 0.999891459941864], "min" : [0.00010852242849068716, 0.24807661771774292]}, {"bufferView" : 1, "byteOffset" : 32, "componentType" : 5126, "count" : 900, "type" : "VEC2", "max" : [0.6586102247238159, 34.28444290161133], "min" : [0.05995285511016846, -34.13698196411133]}, {"bufferView" : 0, "byteOffset" : 1800, "componentType" : 5125, "count" : 89088, "type" : "SCALAR", "max" : [89087], "min" : [0]}, {"bufferView" : 4, "byteOffset" : 0, "componentType" : 5126, "count" : 89088, "type" : "VEC3", "max" : [0.41217002272605896, 0.09018316119909286, 0.314433217048645], "min" : [-0.4128481149673462, -0.08850331604480743, -0.31387728452682495]}, {"bufferView" : 4, "byteOffset" : 12, "componentType" : 5126, "count" : 89088, "type" : "VEC3", "max" : [1.0000041723251343, 1.0000044107437134, 1.0000035762786865], "min" : [-1.0000044107437134, -1.0000044107437134, -1.0000042915344238]}, {"bufferView" : 4, "byteOffset" : 24, "componentType" : 5126, "count" : 89088, "type" : "VEC2", "max" : [0.9998342394828796, 0.9998342394828796], "min" : [0.00016578903887420893, 0.06797349452972412]}, {"bufferView" : 4, "byteOffset" : 32, "componentType" : 5126, "count" : 89088, "type" : "VEC2", "max" : [0.6357107758522034, 15.06867790222168], "min" : [0.04916048049926758, -14.157890319824219]}, {"bufferView" : 0, "byteOffset" : 358152, "componentType" : 5123, "count" : 108, "type" : "SCALAR", "max" : [107], "min" : [0]}, {"bufferView" : 7, "byteOffset" : 0, "componentType" : 5126, "count" : 108, "type" : "VEC3", "max" : [1, 0.35246962308883667, 1], "min" : [-1, -0.33467990159988403, -1]}, {"bufferView" : 7, "byteOffset" : 12, "componentType" : 5126, "count" : 108, "type" : "VEC3", "max" : [0.8755955100059509, 0.6302555203437805, 0.8755955100059509], "min" : [-0.8755955100059509, -0.8755955100059509, -0.8755955100059509]}, {"bufferView" : 7, "byteOffset" : 24, "componentType" : 5126, "count" : 108, "type" : "VEC2", "max" : [0.606306254863739, 0.9813061952590942], "min" : [0.125, 0]}, {"bufferView" : 0, "byteOffset" : 358368, "componentType" : 5123, "count" : 108, "type" : "SCALAR", "max" : [107], "min" : [0]}, {"bufferView" : 8, "byteOffset" : 0, "componentType" : 5126, "count" : 108, "type" : "VEC3", "max" : [1, 0.35246962308883667, 1], "min" : [-1, -0.33467990159988403, -1]}, {"bufferView" : 8, "byteOffset" : 12, "componentType" : 5126, "count" : 108, "type" : "VEC3", "max" : [0.8755955100059509, 0.6302555203437805, 0.8755955100059509], "min" : [-0.8755955100059509, -0.8755955100059509, -0.8755955100059509]}, {"bufferView" : 8, "byteOffset" : 24, "componentType" : 5126, "count" : 108, "type" : "VEC2", "max" : [0.606306254863739, 0.9813061952590942], "min" : [0.125, 0]}], "asset" : {"generator" : "Aspose.3D 20.9.1", "version" : "2.0"}, "buffers" : [{"uri" : "buffer.bin", "byteLength" : 6358204}], "bufferViews" : [{"buffer" : 0, "byteOffset" : 0, "byteLength" : 358584, "target" : 34963}, {"buffer" : 0, "byteOffset" : 358588, "byteLength" : 36000, "byteStride" : 40, "target" : 34962}, {"buffer" : 0, "byteOffset" : 394592, "byteLength" : 150600}, {"buffer" : 0, "byteOffset" : 545196, "byteLength" : 1045976}, {"buffer" : 0, "byteOffset" : 1591176, "byteLength" : 3563520, "byteStride" : 40, "target" : 34962}, {"buffer" : 0, "byteOffset" : 5154700, "byteLength" : 150600}, {"buffer" : 0, "byteOffset" : 5305304, "byteLength" : 1045976}, {"buffer" : 0, "byteOffset" : 6351284, "byteLength" : 3456, "byteStride" : 32, "target" : 34962}, {"buffer" : 0, "byteOffset" : 6354744, "byteLength" : 3456, "byteStride" : 32, "target" : 34962}], "images" : [{"mimeType" : "image/png", "bufferView" : 2}, {"mimeType" : "image/jpeg", "bufferView" : 3}, {"mimeType" : "image/png", "bufferView" : 5}, {"mimeType" : "image/jpeg", "bufferView" : 6}], "materials" : [{"pbrMetallicRoughness" : {"baseColorFactor" : [1, 1, 1, 1], "baseColorTexture" : {"index" : 0, "texCoord" : 0}, "metallicFactor" : 0, "roughnessFactor" : 1, "metallicRoughnessTexture" : {"index" : 1, "texCoord" : 0}}, "emissiveFactor" : [0, 0, 0], "alphaMode" : "OPAQUE", "doubleSided" : true}, {"pbrMetallicRoughness" : {"baseColorFactor" : [1, 1, 1, 1], "baseColorTexture" : {"index" : 2, "texCoord" : 0}, "metallicFactor" : 0, "roughnessFactor" : 1, "metallicRoughnessTexture" : {"index" : 3, "texCoord" : 0}}, "emissiveFactor" : [0, 0, 0], "alphaMode" : "OPAQUE", "doubleSided" : true}, {"pbrMetallicRoughness" : {"baseColorFactor" : [0.20392156862745098, 0.20392156862745098, 0.20392156862745098, 1], "metallicFactor" : 0.8590909242630005, "roughnessFactor" : 0.6363636255264282}, "emissiveFactor" : [0, 0, 0], "alphaMode" : "OPAQUE", "doubleSided" : true}, {"pbrMetallicRoughness" : {"baseColorFactor" : [0.20392156862745098, 0.20392156862745098, 0.20392156862745098, 1], "metallicFactor" : 0.8590909242630005, "roughnessFactor" : 0.6363636255264282}, "emissiveFactor" : [0, 0, 0], "alphaMode" : "OPAQUE", "doubleSided" : true}], "meshes" : [{"primitives" : [{"attributes" : {"POSITION" : 1, "NORMAL" : 2, "TEXCOORD_0" : 3, "TEXCOORD_1" : 4}, "indices" : 0, "material" : 0, "mode" : 4}]}, {"primitives" : [{"attributes" : {"POSITION" : 6, "NORMAL" : 7, "TEXCOORD_0" : 8, "TEXCOORD_1" : 9}, "indices" : 5, "material" : 1, "mode" : 4}]}, {"primitives" : [{"attributes" : {"POSITION" : 11, "NORMAL" : 12, "TEXCOORD_0" : 13}, "indices" : 10, "material" : 2, "mode" : 4}]}, {"primitives" : [{"attributes" : {"POSITION" : 15, "NORMAL" : 16, "TEXCOORD_0" : 17}, "indices" : 14, "material" : 3, "mode" : 4}]}], "nodes" : [{"matrix" : [0.845784068107605, 0, 0, 0, 0, 1, 0, 0, 0, 0, 1, 0, 0.0005231928080320358, 0.1985969990491867, -0.0018505901098251343, 1], "mesh" : 1, "name" : "bottom_coushion2"}, {"matrix" : [9.794738656625757E-06, 0, -0.054088012814644607, 0, 0, 0.05408801883459091, 0, 0, 0.054088012814644607, 0, 9.794738656625757E-06, 0, -0.2576301693916321, -0.12118308246135712, 0.22274546325206757, 1], "mesh" : 2, "name" : "leg1"}, {"matrix" : [9.794738656625757E-06, 0, -0.054088012814644607, 0, 0, 0.05408801883459091, 0, 0, 0.054088012814644607, 0, 9.794738656625757E-06, 0, -0.24823789298534393, -0.12118308246135712, -0.22278860211372375, 1], "mesh" : 2, "name" : "leg3"}, {"matrix" : [9.794738656625757E-06, 0, -0.054088012814644607, 0, 0, 0.05408801883459091, 0, 0, 0.054088012814644607, 0, 9.794738656625757E-06, 0, 0.2564818859100342, -0.12118308246135712, 0.22292186319828033, 1], "mesh" : 3, "name" : "leg2"}, {"matrix" : [9.794738656625757E-06, 0, -0.054088012814644607, 0, 0, 0.05408801883459091, 0, 0, 0.054088012814644607, 0, 9.794738656625757E-06, 0, 0.25383538007736206, -0.12118308246135712, -0.22261229157447815, 1], "mesh" : 3, "name" : "leg4"}, {"children" : [0, 1, 2, 3, 4], "mesh" : 0, "name" : "base"}], "samplers" : [{"magFilter" : 9729, "minFilter" : 9987, "wrapS" : 10497, "wrapT" : 10497}, {"magFilter" : 9729, "minFilter" : 9987, "wrapS" : 10497, "wrapT" : 10497}, {"magFilter" : 9729, "minFilter" : 9987, "wrapS" : 10497, "wrapT" : 10497}, {"magFilter" : 9729, "minFilter" : 9987, "wrapS" : 10497, "wrapT" : 10497}], "scene" : 0, "scenes" : [{"nodes" : [5]}], "textures" : [{"sampler" : 0, "source" : 0}, {"sampler" : 1, "source" : 1}, {"sampler" : 2, "source" : 2}, {"sampler" : 3, "source" : 3}]}